<svg width="13" height="18" viewBox="0 0 13 18" fill="none" xmlns="http://www.w3.org/2000/svg">
<path d="M5.87611 0.0851362C1.84146 0.745069 -0.296107 5.16685 1.68764 8.66426C2.13567 9.45284 2.8486 10.052 3.2722 10.8549C3.59449 11.466 3.82277 12.1986 3.88991 12.8812H9.95226C10.0206 12.1259 10.2868 11.3731 10.664 10.7143C11.1657 9.8376 11.914 9.21817 12.3535 8.27592C14.3605 3.97445 10.6176 -0.690344 5.87611 0.0851362ZM11.1303 6.42239C10.4247 6.43907 10.5346 5.73864 10.4613 5.28121C10.3453 4.57006 9.98278 3.86724 9.46029 3.3574C8.93902 2.84875 8.21877 2.49496 7.48874 2.3818C7.0627 2.31509 6.40104 2.42111 6.32535 1.84099C6.18618 0.767702 7.97217 1.23704 8.53739 1.43597C10.0743 1.97559 11.2756 3.29069 11.6101 4.86071C11.7163 5.35745 11.9226 6.40333 11.1303 6.42239Z" fill="#4D317A"/>
<path d="M8.5976 16.386C8.03482 17.9664 5.80814 17.9664 5.24658 16.386H8.5976Z" fill="#4D317A"/>
<path d="M9.91293 14.05V14.7302C9.91293 14.7754 9.77132 15.018 9.72249 15.0608C9.59553 15.1714 9.41974 15.2047 9.25615 15.2178C7.72653 15.3296 6.05285 15.1298 4.50736 15.2154C4.28273 15.2285 3.92871 14.9407 3.92871 14.7302V14.05H9.91293Z" fill="#4D317A"/>
</svg>
