<?xml version="1.0" encoding="UTF-8" standalone="no"?>
<!DOCTYPE svg PUBLIC "-//W3C//DTD SVG 1.1//EN" "http://www.w3.org/Graphics/SVG/1.1/DTD/svg11.dtd">
<svg width="100%" height="100%" viewBox="0 0 2481 3508" version="1.1" xmlns="http://www.w3.org/2000/svg" xmlns:xlink="http://www.w3.org/1999/xlink" xml:space="preserve" xmlns:serif="http://www.serif.com/" style="fill-rule:evenodd;clip-rule:evenodd;stroke-linejoin:round;stroke-miterlimit:2;">
    <g transform="matrix(106.29,0,0,106.29,-10718.1,-0.938157)">
        <path d="M110.37,16.25C112.24,21.06 112.28,26.52 110.26,31.3C110.02,31.86 110.1,32.5 110.66,32.84C111.13,33.12 111.96,33 112.2,32.44C114.45,27.11 114.65,21.07 112.54,15.65C112.02,14.32 109.84,14.9 110.37,16.25Z" style="fill:rgb(87,77,137);fill-rule:nonzero;"/>
        <path d="M111.01,15.02C108.13,14.12 105.07,11.72 104.36,8.64C104.14,7.69 104.14,6.06 105.43,5.93C107.22,5.75 108.16,7.99 108.71,9.31C109.26,10.63 111.17,10.17 110.88,8.71C110.57,7.14 110.16,5.32 110.88,3.8C111.38,2.75 112.45,1.91 113.64,2.41C114.83,2.91 115.46,4.25 115.51,5.47C115.59,7.21 114.85,8.9 114.2,10.47L116.37,11.07C116.79,9.61 117.34,7.38 119.14,7.08C120.58,6.84 121.03,8.58 120.62,9.67C120.09,11.1 118.45,11.9 117.12,12.41C115.41,13.07 113.63,13.55 112.13,14.63C110.96,15.46 112.08,17.42 113.27,16.57C115.27,15.14 117.79,14.82 119.89,13.57C121.81,12.43 123.28,10.52 122.97,8.19C122.68,5.99 120.82,4.42 118.57,4.91C115.91,5.48 114.87,8.15 114.21,10.47C113.8,11.9 115.85,12.37 116.38,11.07C117.28,8.88 118.19,6.44 117.57,4.05C117.11,2.25 115.67,0.54 113.82,0.11C111.87,-0.34 110.02,0.76 109.06,2.44C107.85,4.56 108.26,7.04 108.71,9.31L110.88,8.71C109.94,6.46 108.66,3.95 105.92,3.7C103.67,3.49 102.14,5.27 102.01,7.4C101.88,9.53 103.02,11.6 104.37,13.22C105.94,15.11 108.08,16.46 110.42,17.2C111.8,17.63 112.4,15.46 111.02,15.03L111.01,15.02Z" style="fill:rgb(87,77,137);fill-rule:nonzero;"/>
    </g>
</svg>
