<?xml version="1.0" encoding="UTF-8"?>
<svg id="Layer_2" data-name="Layer 2" xmlns="http://www.w3.org/2000/svg" viewBox="0 0 51.77 56.49">
  <defs>
    <style>
      .cls-1 {
        fill: #fff;
      }
    </style>
  </defs>
  <g id="Layer_1-2" data-name="Layer 1">
    <g>
      <path class="cls-1" d="M28.09,54.31c0-17.32,0-34.64,0-51.96,0-2.9-4.5-2.9-4.5,0,0,17.32,0,34.64,0,51.96,0,2.9,4.5,2.9,4.5,0h0Z"/>
      <path class="cls-1" d="M24.29,3.84c7.88,7.88,15.75,15.75,23.63,23.63,2.05,2.05,5.23-1.13,3.18-3.18-7.88-7.88-15.75-15.75-23.63-23.63-2.05-2.05-5.23,1.13-3.18,3.18h0Z"/>
      <path class="cls-1" d="M24.29.66C16.42,8.54,8.54,16.42.66,24.29c-2.05,2.05,1.13,5.23,3.18,3.18,7.88-7.88,15.75-15.75,23.63-23.63,2.05-2.05-1.13-5.23-3.18-3.18h0Z"/>
    </g>
  </g>
</svg>