<?xml version="1.0" encoding="UTF-8"?>
<svg id="Layer_2" data-name="Layer 2" xmlns="http://www.w3.org/2000/svg" viewBox="0 0 123.01 38.56">
  <defs>
    <style>
      .cls-1 {
        fill: #fff;
      }
    </style>
  </defs>
  <g id="Layer_1-2" data-name="Layer 1">
    <g>
      <path class="cls-1" d="M32.54,21.76c-.48,4.66-.11,9.38,1.03,13.93.35,1.4,2.52.81,2.17-.6-1.1-4.36-1.41-8.86-.95-13.33.06-.61-.56-1.12-1.12-1.12-.66,0-1.06.52-1.12,1.12h0Z"/>
      <path class="cls-1" d="M43.82,14.96c.15,3.98,3.62,7.4,7.61,7.46.59,0,1.15-.52,1.12-1.12s-.49-1.12-1.12-1.12c-.21,0-.42-.02-.63-.04.2.02.06,0-.06-.01-.09-.02-.18-.03-.26-.05-.2-.05-.41-.1-.61-.17-.09-.03-.17-.06-.25-.09-.28-.1.21.1-.06-.03-.36-.17-.7-.35-1.03-.57-.08-.05-.15-.1-.22-.16-.18-.13.13.11-.09-.08-.15-.13-.3-.26-.44-.39-.13-.13-.26-.26-.38-.4-.07-.08-.14-.16-.2-.24-.05-.06-.04-.05.04.05-.04-.05-.07-.1-.11-.15-.23-.32-.43-.66-.6-1.01-.03-.05-.13-.31-.03-.06-.03-.08-.07-.17-.1-.25-.07-.2-.13-.4-.19-.6-.04-.18-.07-.35-.11-.53.05.28,0,0,0-.06-.01-.12-.02-.24-.02-.36-.02-.59-.5-1.15-1.12-1.12-.59.03-1.15.5-1.12,1.12h0Z"/>
      <path class="cls-1" d="M49.23,11.89c1.31,4.76,2.16,9.62,2.5,14.55.15,2.23.44,4.69-.01,6.9-.34,1.64-1.95,3.9-3.83,2.63-1.2-.81-2.33,1.14-1.14,1.94,1.79,1.21,4.19.61,5.62-.89,1.82-1.9,1.82-4.78,1.76-7.23-.14-6.25-1.08-12.47-2.73-18.49-.38-1.39-2.55-.8-2.17.6h0Z"/>
      <path class="cls-1" d="M55.27,5.98c1.21,10,2.41,20.01,3.62,30.01l2.21-.3c-.73-5.11-1.46-10.23-1.66-15.4-.1-2.46-.1-4.95.13-7.41.16-1.74.54-3.83,1.87-5.09,1.59-1.52,4.02-1.08,5.64.16,1.75,1.35,2.81,3.5,3.53,5.54,1.5,4.22,1.68,9.15-.38,13.22-1.94,3.82-5.72,6.76-10.07,7.08-1.44.11-1.45,2.36,0,2.25,4.6-.34,8.67-2.96,11.19-6.79,2.91-4.42,3.26-10.13,1.83-15.12-1.26-4.4-4.32-9.93-9.67-9.56s-6.16,6.34-6.32,10.55c-.28,7.1.74,14.16,1.75,21.16.18,1.24,2.36.96,2.21-.3-1.21-10-2.41-20.01-3.62-30.01-.17-1.42-2.42-1.44-2.25,0h0Z"/>
      <path class="cls-1" d="M0,5.98c1.21,10,2.41,20.01,3.62,30.01l2.21-.3c-.73-5.11-1.46-10.23-1.66-15.4-.1-2.46-.1-4.95.13-7.41.16-1.74.54-3.83,1.87-5.09,1.59-1.52,4.02-1.08,5.64.16,1.75,1.35,2.81,3.5,3.53,5.54,1.5,4.22,1.68,9.15-.38,13.22-1.94,3.82-5.72,6.76-10.07,7.08-1.44.11-1.45,2.36,0,2.25,4.6-.34,8.67-2.96,11.19-6.79,2.91-4.42,3.26-10.13,1.83-15.12-1.26-4.4-4.32-9.93-9.67-9.56S2.09,10.93,1.92,15.13c-.28,7.1.74,14.16,1.75,21.16.18,1.24,2.36.96,2.21-.3-1.21-10-2.41-20.01-3.62-30.01C2.09,4.56-.16,4.55,0,5.98H0Z"/>
      <path class="cls-1" d="M73.71,29.51c1.1,3.98,7.6,4.49,8.88.37.58-1.87-.06-4.05-1.25-5.54-.58-.72-1.43-1.33-2.35-1.5-1.01-.19-2.01.06-2.83.67-1.73,1.29-2.99,3.82-2.45,6,.14.57.82.97,1.38.79s.94-.77.79-1.38c-.02-.07-.03-.14-.04-.21-.04-.14.01.26.02.11,0-.03,0-.06,0-.1-.01-.18,0-.36,0-.54,0-.04.02-.1.02-.14,0,0-.04.24-.01.12.02-.08.03-.17.05-.25.04-.2.1-.39.16-.58.03-.08.07-.17.09-.25.03-.12-.04.09-.04.09.01-.05.04-.1.06-.14.09-.19.18-.38.29-.55.09-.16.2-.31.3-.46.05-.07.05-.14-.04.04.01-.03.05-.06.07-.09.07-.09.15-.17.23-.26.12-.13.25-.24.38-.35.15-.13-.2.13.03-.02.08-.05.16-.1.24-.15.03-.02.2-.08.21-.11-.04.07-.22.08-.08.03.04-.01.08-.03.13-.04.07-.02.15-.04.23-.06.24-.06-.22,0,.03,0,.08,0,.16,0,.23,0,.18,0-.07,0-.1-.02.03.02.11.02.13.03.08.02.15.04.23.06.03.01.06.02.1.03.19.06-.17-.09-.05-.02.13.08.28.14.41.23.04.03.07.05.11.08.1.06-.09-.07-.09-.07,0,.03.21.18.23.21.12.12.22.25.33.37.1.11-.12-.18-.04-.06.02.03.04.06.06.09.06.09.12.18.18.28.09.15.17.3.24.46.11.23-.05-.15.02.04.04.09.07.19.1.28.06.18.11.36.15.54.02.08.04.17.05.26,0,.05.02.1.02.15.03.18-.03-.06-.01-.08-.04.05.03.42.03.51,0,.17-.06.41-.03.56,0-.02.05-.28.01-.1,0,.03-.01.07-.02.1-.02.08-.03.15-.05.23-.02.08-.05.17-.08.25-.01.03-.03.06-.03.09-.04.13.12-.23.02-.06-.04.07-.23.31-.23.38,0-.09.15-.17.05-.06-.02.03-.05.05-.07.08-.07.08-.14.15-.22.21-.02.02-.05.04-.08.07-.1.1.19-.12.07-.05-.07.04-.13.09-.2.13s-.14.08-.21.11c-.04.02-.08.04-.12.06-.12.06.27-.09.05-.02-.15.05-.3.1-.45.13-.08.02-.16.03-.23.04-.14.04.24-.02.1-.01-.05,0-.09,0-.14.01-.2.01-.39.01-.59,0-.05,0-.09,0-.14-.01-.16-.01.05,0,.09.01-.07-.04-.22-.04-.31-.06-.19-.04-.38-.11-.56-.17-.04-.01-.13-.07,0,0,.16.09-.02,0-.05-.03-.08-.04-.16-.08-.24-.13s-.16-.09-.23-.14c-.04-.03-.07-.05-.11-.08-.16-.11.13.13.04.03-.13-.14-.28-.26-.41-.4-.02-.03-.09-.12,0,0,.11.15,0-.01-.03-.05-.05-.07-.1-.15-.14-.23-.02-.04-.04-.08-.06-.12-.1-.17.05.18.02.05-.03-.1-.07-.2-.1-.3-.16-.57-.8-.97-1.38-.79s-.95.78-.79,1.38Z"/>
      <path class="cls-1" d="M110.37,16.25c1.87,4.81,1.91,10.27-.11,15.05-.24.56-.16,1.2.4,1.54.47.28,1.3.16,1.54-.4,2.25-5.33,2.45-11.37.34-16.79-.52-1.33-2.7-.75-2.17.6h0Z"/>
      <path class="cls-1" d="M111.01,15.02c-2.88-.9-5.94-3.3-6.65-6.38-.22-.95-.22-2.58,1.07-2.71,1.79-.18,2.73,2.06,3.28,3.38s2.46.86,2.17-.6c-.31-1.57-.72-3.39,0-4.91.5-1.05,1.57-1.89,2.76-1.39s1.82,1.84,1.87,3.06c.08,1.74-.66,3.43-1.31,5l2.17.6c.42-1.46.97-3.69,2.77-3.99,1.44-.24,1.89,1.5,1.48,2.59-.53,1.43-2.17,2.23-3.5,2.74-1.71.66-3.49,1.14-4.99,2.22-1.17.83-.05,2.79,1.14,1.94,2-1.43,4.52-1.75,6.62-3,1.92-1.14,3.39-3.05,3.08-5.38-.29-2.2-2.15-3.77-4.4-3.28-2.66.57-3.7,3.24-4.36,5.56-.41,1.43,1.64,1.9,2.17.6.9-2.19,1.81-4.63,1.19-7.02-.46-1.8-1.9-3.51-3.75-3.94-1.95-.45-3.8.65-4.76,2.33-1.21,2.12-.8,4.6-.35,6.87l2.17-.6c-.94-2.25-2.22-4.76-4.96-5.01-2.25-.21-3.78,1.57-3.91,3.7s1.01,4.2,2.36,5.82c1.57,1.89,3.71,3.24,6.05,3.98,1.38.43,1.98-1.74.6-2.17h0Z"/>
      <path class="cls-1" d="M38.95,9.39c1.09,7.43,1.11,15.02.06,22.46-.2,1.42,1.97,2.03,2.17.6,1.11-7.87,1.1-15.79-.06-23.66-.21-1.43-2.38-.82-2.17.6h0Z"/>
      <path class="cls-1" d="M27.88,30.09c.5-1.76-.13-3.82-1.53-5.01-.72-.61-1.56-1.01-2.52-1.05-1.02-.05-1.96.39-2.72,1.04-1.24,1.05-1.96,2.85-1.76,4.46.12.94.45,1.78,1.07,2.5.57.66,1.43,1.17,2.29,1.31,2.25.38,4.5-1.1,5.17-3.26.18-.56-.21-1.25-.79-1.38-.61-.14-1.2.18-1.38.79-.02.05-.04.19-.08.23,0,0,.1-.2.03-.08-.02.03-.03.07-.05.11-.08.16-.18.29-.27.45-.06.11.05-.07.05-.07-.01.03-.06.07-.08.09-.05.06-.11.12-.16.18s-.12.11-.18.17c-.03.03-.06.05-.09.08-.11.1,0,.02.04-.03-.07.11-.29.2-.41.26-.07.04-.14.07-.21.11-.02.01-.15.07-.01,0s-.02,0-.05.02c-.16.05-.33.1-.49.14-.04,0-.08.01-.12.02-.13.03.11-.02.11-.01-.01.03-.24.01-.27.02-.08,0-.16,0-.23,0-.01,0-.11,0-.12-.01,0-.01.24.05.11.01-.12-.04-.41-.04-.49-.14,0,0,.2.11.09.03-.03-.02-.07-.04-.11-.05-.07-.04-.14-.08-.2-.12-.03-.02-.19-.1-.19-.13,0,0,.17.15.08.06-.04-.03-.08-.06-.11-.1-.11-.1-.2-.21-.3-.31-.08-.08.07.08.07.09,0,0-.06-.08-.06-.09-.04-.07-.09-.14-.13-.21-.03-.06-.07-.12-.1-.18-.02-.03-.03-.06-.04-.09-.06-.1.05.1.05.11.02-.06-.12-.35-.14-.43-.02-.07-.03-.14-.04-.2,0-.03,0-.08-.02-.1,0,0,.02.25.02.13,0-.15-.02-.3-.02-.46,0-.13.05-.3.03-.43,0,0-.04.24-.01.12,0-.03.01-.07.02-.11.02-.08.03-.16.06-.25.04-.15.09-.3.14-.45.07-.2-.09.19,0,0,.04-.08.07-.15.11-.23.07-.13.14-.26.23-.38.02-.04.15-.24.06-.1s.06-.07.1-.11c.1-.11.2-.22.31-.32.06-.05.11-.1.17-.14-.17.14.02,0,.09-.05s.14-.08.22-.12c.02-.01.09-.06.11-.05,0,0-.21.07-.09.04.04-.01.47-.12.47-.13,0,.01-.24.02-.12.02.04,0,.07,0,.11,0,.07,0,.14,0,.21,0,.03,0,.07,0,.11,0,.12,0-.11-.01-.12-.02.05.03.18.03.24.05.07.02.14.04.2.06.03.01.07.02.1.04.09.03.07-.01,0,0-.08,0-.09-.04,0,0,.03.02.06.03.1.05.07.04.15.08.22.13.05.03.24.19.12.08s.08.07.11.1c.14.13.26.27.38.41.09.09-.07-.08-.06-.08.03,0,.07.1.09.12.05.07.1.15.14.23s.09.16.13.24c.02.03.03.07.05.1.07.13-.07-.2-.02-.06.06.17.12.34.16.52.02.09.04.18.05.27.01.07-.02.12,0,0,.02-.14,0-.01,0,.04,0,.18-.01.37,0,.55,0,.13.02-.11.02-.1,0,.04-.02.11-.03.16-.02.11-.05.21-.08.31-.16.57.2,1.25.79,1.38s1.21-.18,1.38-.79Z"/>
      <path class="cls-1" d="M25.96,27.31c-.72,2.44.85,5.22,3.29,5.89.57.16,1.25-.19,1.38-.79s-.18-1.22-.79-1.38c-.11-.03-.23-.09-.34-.11.07.01.24.12.08.03-.05-.03-.11-.05-.16-.08-.1-.05-.19-.11-.28-.17-.05-.03-.09-.08-.14-.1.06.03.2.17.07.05-.17-.15-.33-.31-.48-.49-.12-.14.12.18.05.06-.03-.04-.06-.08-.09-.12-.07-.1-.13-.2-.19-.31-.05-.1-.1-.2-.15-.29-.06-.12.1.26.03.08-.02-.06-.04-.11-.06-.17-.07-.21-.1-.42-.15-.64.08.31.02.17.01.06,0-.06,0-.12-.01-.18,0-.1,0-.2,0-.3,0-.06.02-.12.01-.18,0,.29-.03.18,0,.06s.05-.23.08-.35c.17-.56-.2-1.25-.79-1.38s-1.21.18-1.38.79h0Z"/>
      <path class="cls-1" d="M94.02,28.62c1.02.44,2.14.56,3.21.19s1.97-1.03,2.48-2c.64-1.21.67-2.69-.21-3.78-.81-1-2.2-1.29-3.35-.68-.96.51-1.57,1.51-2.04,2.45-.57,1.14-1.1,2.3-1.19,3.58-.08,1.18.29,2.46,1.16,3.29.78.75,1.86,1.09,2.92,1.06,2.62-.09,4.88-1.92,6.29-4.02.34-.51.1-1.25-.4-1.54-.55-.32-1.2-.1-1.54.4-.43.64-.98,1.24-1.62,1.75-.23.18-.55.4-.86.57-.4.23-.51.28-.91.4-.15.05-.3.09-.46.12.03,0-.35.06-.2.04s-.22.02-.19.02c-.15,0-.3.01-.45,0,.02,0-.34-.04-.18-.02.11.02-.19-.05-.23-.06-.09-.02-.17-.05-.26-.09.06.03.14.08-.03-.02-.06-.04-.13-.07-.19-.11-.28-.17.06.07-.08-.06s-.18-.17-.25-.28c-.12-.19-.16-.27-.19-.4-.1-.41-.13-.5-.11-.94.01-.34.12-.76.27-1.2.27-.76.65-1.53,1.08-2.21.18-.28.26-.4.56-.67-.14.13.28-.16.18-.12-.14.06.17-.05.16-.04-.19.04.06,0,.13.01-.12-.02-.04-.03.04.03-.13-.09.02.02.04.03.29.2-.05-.07.09.07.03.03.17.22.08.09.14.21.18.43.13.73-.04.22-.1.37-.21.55-.04.06-.08.12-.12.18.11-.16-.09.1-.1.11-.05.05-.1.1-.15.15-.03.02-.26.2-.11.1-.16.11-.34.22-.52.3s.23-.06-.09.03c-.11.03-.21.07-.32.09-.07.02-.14.03-.21.04.22-.04-.11,0-.13,0-.07,0-.15,0-.22,0-.05,0-.33-.03-.13,0-.09-.01-.18-.03-.27-.06-.04-.01-.38-.13-.19-.05-.56-.24-1.21-.16-1.54.4-.28.48-.16,1.3.4,1.54h0Z"/>
      <path class="cls-1" d="M91.31,23.23c-.8-1.37-2.47-2.04-4.01-1.68-1.62.38-2.75,1.94-2.87,3.55s.82,3.16,2.18,3.95c.68.4,1.46.52,2.17.85.24.11.45.26.56.41.04.05.07.11.1.17.03.06-.03.05.02.08.06.04,0,.08,0-.03,0-.06-.08.1-.02.05.11-.1-.13.07-.18.09-.04.02-.31.1-.42.13-.4.09-.8.13-1.21.13-.88,0-1.77-.18-2.57-.55-.55-.26-1.21-.15-1.54.4-.29.49-.15,1.28.4,1.54,1.62.76,3.36,1.02,5.13.73.81-.14,1.64-.44,2.17-1.11.57-.73.6-1.65.22-2.47-.33-.7-.95-1.25-1.65-1.56s-1.45-.43-2.09-.82c-.42-.26-.78-.71-.92-1.16-.16-.52-.11-1,.18-1.48.28-.46.78-.72,1.2-.72.48,0,.96.22,1.22.67.73,1.25,2.68.12,1.94-1.14h0Z"/>
      <path class="cls-1" d="M33.46,19.43c1.21-.47,1.97-1.48,2.45-2.66.42-1.04.55-2.27.07-3.3-.57-1.24-2.02-1.51-3.23-1.14-1.49.46-2.6,1.98-2.91,3.46-.18.87-.15,1.87.38,2.63.72,1.02,2.05,1.43,3.23,1.01.55-.2.98-.78.79-1.38-.18-.55-.79-1-1.38-.79-.08.03-.16.05-.24.07-.25.06.18,0-.02,0-.07,0-.14,0-.21,0-.19,0,.06,0,.09.02-.04-.02-.09-.02-.14-.03-.05-.01-.3-.1-.13-.03.21.08-.12-.07-.11-.08.01,0,.17.16.09.07-.03-.03-.06-.06-.09-.09-.16-.15.11.18.03.04-.03-.05-.06-.1-.09-.15-.12-.2.07.22.02.06-.02-.06-.04-.11-.05-.17-.01-.05-.05-.31-.03-.08s0,.01,0-.04c0-.06,0-.13,0-.19s0-.13.01-.2c.01-.24-.05.26,0,.02.03-.12.05-.25.09-.37.02-.07.04-.13.07-.2.01-.03.02-.06.03-.08.07-.2-.09.19-.03.07.13-.25.25-.5.42-.74.02-.02.04-.05.05-.07.1-.15-.06.08-.07.09.05-.04.09-.11.13-.16.09-.1.18-.2.28-.28.03-.02.06-.05.09-.07.08-.08-.13.1-.12.09.05-.03.1-.07.16-.11s.11-.07.16-.09c.11-.06.29-.08-.04,0,.11-.03.21-.07.32-.1.06-.01.12-.03.17-.04.02,0,.05,0,.07-.01.11-.03-.32.02-.14.02.09,0,.18,0,.27,0,.23,0-.12,0-.13-.02,0,0,.13.03.14.03.04.01.08.03.11.04.05.01-.28-.15-.15-.06.03.02.07.04.1.06.17.09-.17-.16-.1-.08.02.03.05.05.08.08.09.08.06.18-.09-.12.03.07.08.13.12.19.09.16-.06-.17-.05-.13s.03.08.04.11c.02.08.04.16.06.24.04.16-.03-.33-.02-.13,0,.04,0,.09,0,.13,0,.09,0,.18,0,.27,0,.07.01.22-.02.28.03-.06.05-.33.01-.11,0,.06-.02.11-.03.17-.04.2-.1.39-.17.59-.02.06-.04.11-.06.17-.08.2.12-.26.03-.06-.05.1-.09.2-.15.3-.06.1-.12.2-.18.3-.03.05-.07.1-.1.14-.13.2.15-.18.05-.06-.15.17-.29.32-.46.47-.11.1.25-.17.09-.07-.04.03-.09.06-.13.08s-.09.05-.13.07c-.02,0-.03.02-.05.02-.15.09.29-.12.13-.06-.55.21-.99.77-.79,1.38.17.53.8,1.01,1.38.79Z"/>
    </g>
  </g>
</svg>