<?xml version="1.0" encoding="UTF-8"?>
<svg id="Layer_2" data-name="Layer 2" xmlns="http://www.w3.org/2000/svg" viewBox="0 0 163.5 163.38">
  <defs>
    <style>
      .cls-1 {
        fill: #fff;
      }
    </style>
  </defs>
  <g id="Layer_1-2" data-name="Layer 1">
    <g id="RuhIQ1.tif">
      <path class="cls-1" d="M87.45,0l9.64,1.38c32.57,6.05,58.85,32.44,64.97,64.97l1.38,9.64c-.17,3.77.23,7.74,0,11.49-4.43,71.77-95.64,102.72-143.33,48.04C-24.17,84.76,9.24,4.12,75.95,0h11.49ZM79.4,25c-22.14,1.71-34.46,26.91-22.09,45.53,11.98,18.04,39.17,17.05,49.87-1.79,11.6-20.43-4.5-45.53-27.78-43.74ZM53.86,85.31c-4.89.27-11.8,8.43-14.56,12.28-3.3,4.59-8.83,15.11-8.37,20.71.32,3.83,5.47,8.65,8.31,11.16,24.22,21.45,60.96,21.38,85.09-.16,2.47-2.2,7.66-7.19,8.1-10.41,1.24-8.92-10.25-25.34-17.06-30.77-7.92-6.3-10.94-.15-18.13,2.92-11.21,4.78-24.05,4.05-34.7-1.8-2.81-1.54-5.15-4.12-8.67-3.93Z"/>
    </g>
  </g>
</svg>